<?xml version="1.0" encoding="UTF-8" standalone="no"?>
<!DOCTYPE svg PUBLIC "-//W3C//DTD SVG 1.1//EN" "http://www.w3.org/Graphics/SVG/1.1/DTD/svg11.dtd">
<svg width="100%" height="100%" viewBox="0 0 2363 2363" version="1.1" xmlns="http://www.w3.org/2000/svg" xmlns:xlink="http://www.w3.org/1999/xlink" xml:space="preserve" xmlns:serif="http://www.serif.com/" style="fill-rule:evenodd;clip-rule:evenodd;stroke-linejoin:round;stroke-miterlimit:1.41421;">
    <g id="glassortering" transform="matrix(1.20979,0,0,1.28995,0,0)">
        <rect x="0" y="0" width="1952.58" height="1831.23" style="fill:none;"/>
        <g transform="matrix(0.826593,0,0,0.775221,0,0)">
            <path d="M1731.28,194.412C1803.17,194.412 1861.54,252.783 1861.54,324.679L1861.54,581.694L2055.47,581.694C2118.04,581.695 2168.84,632.493 2168.84,695.063L2168.84,2087.87C2168.84,2150.44 2118.04,2201.24 2055.47,2201.24L306.735,2201.24C244.165,2201.24 193.366,2150.44 193.366,2087.87L193.366,695.063C193.366,632.493 244.164,581.695 306.735,581.694L500.662,581.694L500.662,324.679C500.662,252.783 559.033,194.412 630.93,194.412L1731.28,194.412Z" style="fill:rgb(16,74,0);"/>
        </g>
        <g id="Layer1" transform="matrix(0.826593,0,0,0.775221,-0.863974,0)">
            <g transform="matrix(1,0,0,1,-154.311,-154.311)">
                <circle cx="1336.46" cy="563.946" r="154.311" style="fill:rgb(4,18,0);"/>
            </g>
            <path d="M1062.97,507.624C1049.79,486.281 1042.19,461.139 1042.19,434.234C1042.19,356.987 1104.9,294.272 1182.15,294.272C1259.39,294.272 1322.11,356.987 1322.11,434.234C1322.11,461.139 1314.5,486.281 1301.32,507.624C1273.01,542.007 1230.12,563.946 1182.15,563.946C1134.17,563.946 1091.29,542.007 1062.97,507.624Z"/>
            <g transform="matrix(1,0,0,1,4.23588,10.0094)">
                <rect x="390.509" y="809.104" width="1574.81" height="1174.43" style="fill:rgb(207,255,193);"/>
            </g>
        </g>
    </g>
</svg>
